<svg width="241" height="241" viewBox="0 0 241 241" fill="none" xmlns="http://www.w3.org/2000/svg">
  <path
    d="M229 100.5C235.627 100.5 241.062 105.886 240.403 112.48C238.707 129.456 233.42 145.926 224.84 160.777C214.254 179.102 199.028 194.316 180.695 204.888C162.362 215.459 141.568 221.017 120.405 221C99.2425 220.983 78.4572 215.394 60.1408 204.793C41.8243 194.192 26.6226 178.955 16.0652 160.613C5.50773 142.272 -0.0330937 121.474 0.00014866 100.311C0.033391 79.1479 5.63953 58.367 16.2545 40.0589C24.8574 25.2212 36.5042 12.4317 50.3783 2.50404C55.768 -1.35259 63.1452 0.67639 66.4469 6.42283L67.6974 8.59918C70.999 14.3456 68.9592 21.6229 63.6799 25.6294C53.7914 33.1339 45.4547 42.5483 39.1885 53.3559C30.9088 67.6363 26.536 83.8453 26.5101 100.352C26.4842 116.859 30.806 133.082 39.0408 147.388C47.2756 161.695 59.1329 173.58 73.4198 181.848C87.7066 190.117 103.919 194.477 120.426 194.49C136.933 194.503 153.153 190.168 167.452 181.922C181.752 173.676 193.628 161.81 201.885 147.516C208.135 136.699 212.144 124.78 213.725 112.468C214.569 105.894 219.863 100.5 226.49 100.5H229Z"
    fill="#E5E8EC" />
</svg>