<svg width="20" height="20" viewBox="0 0 20 20" fill="none" xmlns="http://www.w3.org/2000/svg">
  <path
    d="M18.95 9C19.5299 9 20.0057 9.47139 19.9449 10.0481C19.7929 11.4902 19.3286 12.8864 18.5793 14.1377C17.6496 15.6901 16.3161 16.9612 14.7209 17.8155C13.1257 18.6698 11.3286 19.0752 9.52109 18.9885C7.71362 18.9019 5.96353 18.3264 4.45737 17.3234C2.9512 16.3204 1.74541 14.9276 0.968519 13.2933C0.191626 11.659 -0.127253 9.84453 0.0458709 8.04328C0.218994 6.24203 0.877631 4.52151 1.95158 3.06511C2.81715 1.89129 3.92636 0.924493 5.19835 0.228214C5.70702 -0.0502325 6.32542 0.207022 6.54902 0.742079V0.742079C6.77262 1.27714 6.51549 1.88632 6.01478 2.17885C5.09012 2.71908 4.28165 3.44365 3.64175 4.31144C2.79333 5.46199 2.27301 6.8212 2.13624 8.24419C1.99947 9.66718 2.25138 11.1006 2.86513 12.3917C3.47888 13.6828 4.43145 14.7832 5.62132 15.5755C6.81119 16.3678 8.19376 16.8225 9.62166 16.8909C11.0496 16.9594 12.4693 16.6391 13.7295 15.9643C14.9897 15.2894 16.0432 14.2852 16.7777 13.0588C17.3316 12.1337 17.6884 11.1084 17.8303 10.0469C17.9072 9.47214 18.3701 9 18.95 9V9Z"
    fill="#171717" />
</svg>